<?xml version="1.0" encoding="UTF-8"?>
<!--Generator: Apple Native CoreSVG 341-->
<!DOCTYPE svg
PUBLIC "-//W3C//DTD SVG 1.1//EN"
       "http://www.w3.org/Graphics/SVG/1.1/DTD/svg11.dtd">
<svg version="1.1" xmlns="http://www.w3.org/2000/svg" xmlns:xlink="http://www.w3.org/1999/xlink" viewBox="0 0 19.9198 23.7211">
 <g>
  <rect height="23.7211" opacity="0" width="19.9198" x="0" y="0"/>
  <path d="M8.07811 0.70028L8.07811 5.17277C8.07811 5.86515 8.54872 6.05187 9.08373 5.67441L12.2024 3.49013C12.6483 3.17287 12.6586 2.71052 12.2024 2.39327L9.09408 0.198637C8.54872-0.189171 8.07811-0.00244616 8.07811 0.70028ZM9.95468 21.809C15.4553 21.809 19.9197 17.3549 19.9197 11.8543C19.9197 8.50807 18.2802 5.60406 15.7682 3.7875C15.3413 3.4643 14.7778 3.57414 14.5395 3.974C14.293 4.37809 14.4235 4.83603 14.8152 5.1385C16.892 6.63191 18.2559 9.07375 18.2559 11.8543C18.2559 16.4433 14.5436 20.1555 9.95468 20.1555C5.36576 20.1555 1.66173 16.4433 1.66173 11.8543C1.66173 7.26539 5.36576 3.55315 9.95679 3.55315C10.4168 3.55315 10.7836 3.18012 10.7836 2.72639C10.7836 2.27269 10.4272 1.91 9.96716 1.89965C4.45409 1.91-8.88178e-16 6.35374-8.88178e-16 11.8543C-8.88178e-16 17.3549 4.46443 21.809 9.95468 21.809Z" fill="white" fill-opacity="0.55"/>
  <path d="M6.8314 15.9244C8.27034 15.9244 9.41425 15.0894 9.41425 13.7127C9.41425 12.5893 8.67503 12.0054 7.7711 11.9181L7.7711 11.9017C8.63704 11.7065 9.1608 10.9986 9.1608 10.1612C9.1608 8.89476 8.11469 8.17797 6.80227 8.17797C5.71224 8.17797 4.76792 8.79046 4.55588 9.66464C4.52253 9.781 4.50794 9.90371 4.50794 10.0222C4.50794 10.3166 4.66762 10.5716 5.07805 10.5716C5.40565 10.5716 5.57969 10.4366 5.68953 10.1318C5.87836 9.54766 6.257 9.25605 6.81262 9.25605C7.46562 9.25605 7.86939 9.66976 7.86939 10.3206C7.86939 11.0275 7.37435 11.4579 6.66119 11.4579L6.37357 11.4579C6.03984 11.4579 5.84488 11.6507 5.84488 11.9555C5.84488 12.2768 6.05018 12.4489 6.37357 12.4489L6.67575 12.4489C7.46812 12.4489 8.04825 12.7942 8.04825 13.6548C8.04825 14.3431 7.56147 14.8257 6.84177 14.8257C6.1556 14.8257 5.7641 14.4762 5.58141 13.9353C5.46122 13.6719 5.24365 13.5038 4.98027 13.5038C4.61124 13.5038 4.37702 13.7319 4.37702 14.0885C4.37702 14.2091 4.39369 14.3275 4.42704 14.446C4.67033 15.4323 5.79314 15.9244 6.8314 15.9244ZM13.0839 15.9265C15.0109 15.9265 15.6876 13.9613 15.6876 12.0284C15.6876 10.1056 15.0046 8.15304 13.0839 8.15304C11.1526 8.15304 10.4863 10.1161 10.4863 12.0284C10.4863 13.9719 11.1714 15.9265 13.0839 15.9265ZM13.0839 14.8278C12.276 14.8278 11.8605 13.623 11.8605 12.0284C11.8605 10.4482 12.276 9.25795 13.0839 9.25795C13.9001 9.25795 14.3134 10.4524 14.3134 12.0284C14.3134 13.623 13.9022 14.8278 13.0839 14.8278Z" fill="white" fill-opacity="0.55"/>
 </g>
</svg>
